Blitz 2011 SWESUB 720p BluRay x264-ASPiRE
 
http://www.imdb.com/title/tt1297919/

Handling:

The Walking Dead är en amerikansk TV-serie från 2010. Serien är baserad på 
serietidningen med samma namn. Serien handlar om polischefen Rick Grimes som, 
tillsammans med ett fåtal andra, försöker klara sig i en värld som blivit 
övertagen av zombies.

iNFO:

Genre: Thriller
Regi: Elliott Lester
Medverkande: Jason Statham, Paddy Considine, Aidan Gillen, Zawe Ashton
Produktionsland: England
Språk: Engelska
Text: Svenska

General:
Format                           : Matroska
File size                        : 3.27 GiB
Duration                         : 1h 37mn
Overall bit rate                 : 4 830 Kbps

Video:
Format                           : AVC
Format/Info                      : Advanced Video Codec
Format profile                   : High@L4.1
Format settings, CABAC           : Yes
Format settings, ReFrames        : 5 frames
Muxing mode                      : Header stripping
Codec ID                         : V_MPEG4/ISO/AVC
Duration                         : 1h 37mn
Bit rate                         : 4 187 Kbps
Width                            : 1 280 pixels
Height                           : 544 pixels
Display aspect ratio             : 2.35:1
Frame rate                       : 24.000 fps
Color space                      : YUV
Chroma subsampling               : 4:2:0
Bit depth                        : 8 bits
Scan type                        : Progressive
Bits/(Pixel*Frame)               : 0.251
Stream size                      : 2.77 GiB (85%)
Language                         : English

Audio:
Format                           : AC-3
Format/Info                      : Audio Coding 3
Mode extension                   : CM (complete main)
Muxing mode                      : Header stripping
Codec ID                         : A_AC3
Duration                         : 1h 37mn
Bit rate mode                    : Constant
Bit rate                         : 640 Kbps
Channel(s)                       : 6 channels
Channel positions                : Front: L C R, Side: L R, LFE
Sampling rate                    : 48.0 KHz
Bit depth                        : 16 bits
Compression mode                 : Lossy
Stream size                      : 444 MiB (13%)
Language                         : English

Enjoy, ASPiRE